<svg preserveAspectRatio="none" width="100%" height="100%" overflow="visible" style="display: block;" viewBox="0 0 163 22" fill="none" xmlns="http://www.w3.org/2000/svg">
<g id="Vector">
<path d="M0 20.3582H19.7507L18.6156 21.8905H0V20.3582Z" fill="var(--fill-0, #D40511)"/>
<path d="M138.709 21.8905L139.958 20.3582H163V21.8905H138.709Z" fill="var(--fill-0, #D40511)"/>
<path d="M0 17.5124H22.0209L20.7723 19.0448H0V17.5124Z" fill="var(--fill-0, #D40511)"/>
<path d="M0 14.6667H24.2911L23.0425 16.199H0V14.6667Z" fill="var(--fill-0, #D40511)"/>
<path d="M140.979 19.0448L142.228 17.5124H163V19.0448H140.979Z" fill="var(--fill-0, #D40511)"/>
<path d="M144.384 14.6667H162.886V16.199H143.136L144.384 14.6667Z" fill="var(--fill-0, #D40511)"/>
<path d="M21.3398 21.8905L31.7827 8.42786C31.7827 8.42786 43.3607 8.42786 44.7228 8.42786C46.1985 8.42786 46.1985 8.97512 45.4039 9.85075C44.7228 10.7264 43.4742 12.3682 42.7932 13.2438C42.4526 13.791 41.7716 14.5572 43.9283 14.5572C46.312 14.5572 61.2953 14.5572 61.2953 14.5572C59.9331 16.5274 55.1657 22 46.766 22C39.9554 21.8905 21.3398 21.8905 21.3398 21.8905Z" fill="var(--fill-0, #D40511)"/>
<path d="M81.1595 14.6667L75.484 22H60.6142L66.2897 14.6667H81.1595Z" fill="var(--fill-0, #D40511)"/>
<path d="M102.84 14.6667L97.1643 22H82.1811L87.8565 14.6667H102.84Z" fill="var(--fill-0, #D40511)"/>
<path d="M107.721 14.6667C107.721 14.6667 106.586 16.0896 106.132 16.7463C104.202 19.1542 105.905 22 112.034 22C119.072 22 136.098 22 136.098 22L141.774 14.6667H107.721Z" fill="var(--fill-0, #D40511)"/>
<path d="M28.718 0.109453L23.4965 6.78607C23.4965 6.78607 50.3983 6.78607 51.874 6.78607C53.3496 6.78607 53.3496 7.33333 52.555 8.20896C51.874 9.08458 50.6253 10.7264 49.9443 11.602C49.6038 12.0398 48.9227 12.9154 51.0794 12.9154C53.4631 12.9154 62.6574 12.9154 62.6574 12.9154C62.6574 12.9154 64.587 10.5075 66.0627 8.42786C68.2194 5.69154 66.2897 0 58.6845 0C51.874 0.109453 28.718 0.109453 28.718 0.109453Z" fill="var(--fill-0, #D40511)"/>
<path d="M104.088 12.9154H67.5383L77.5272 0.109453H92.5104L86.835 7.44279H93.532L99.2075 0.109453H114.191L104.088 12.9154Z" fill="var(--fill-0, #D40511)"/>
<path d="M134.85 0.109453L124.861 12.9154H108.969L118.958 0.109453H134.85Z" fill="var(--fill-0, #D40511)"/>
</g>
</svg>
