<svg width="191" height="28" viewBox="0 0 191 28" fill="none" xmlns="http://www.w3.org/2000/svg">
<path d="M0 15.7614L2.79299 18.8128L16.3478 4.00397L13.5548 0.952578L0 15.7614Z" fill="#FFBE07"/>
<path d="M6.48266 14.8089L9.27565 17.8602L22.8305 3.05139L20.0375 0L6.48266 14.8089Z" fill="#211F1F"/>
<path d="M8.41371 24.9486L11.2067 28L24.7615 13.1911L21.9685 10.1398L8.41371 24.9486Z" fill="#211F1F"/>
<path d="M7.43886 19.8689L10.2319 22.9203L23.7867 8.11147L20.9937 5.06007L7.43886 19.8689Z" fill="#FFBE07"/>
<path d="M14.8899 23.9777L17.6797 27.0256L31.242 12.2085L28.4246 9.16061L14.8899 23.9777Z" fill="#FFBE07"/>
<path d="M46.7789 9.64674V12.3915H52.1141V15.7898H46.7789V21.8675H43.2422V6.24844H52.9533V9.64674H46.7789Z" fill="#211F1F"/>
<path d="M62.8438 21.8677L60.3261 16.0514H59.1272V21.8677H55.5905V6.2486H61.2852C62.7839 6.2486 63.9828 6.77142 64.8819 7.75169C65.7212 8.73197 66.2007 9.90831 66.2007 11.2807C66.2007 12.261 65.9609 13.1105 65.5413 13.7641C65.0618 14.4829 64.5223 15.0058 63.8629 15.3325L66.98 21.8677H62.8438ZM61.1054 9.71225H59.1272V12.8491H61.1054C61.585 12.8491 61.9446 12.7184 62.2444 12.3917C62.5441 12.0649 62.664 11.7382 62.664 11.2807C62.664 10.8886 62.5441 10.4965 62.2444 10.1697C61.9446 9.84295 61.585 9.71225 61.1054 9.71225Z" fill="#211F1F"/>
<path d="M69.1381 21.8677V6.2486H78.8492V9.6469H72.6149V12.261H77.95V15.6593H72.6149V18.4041H78.8492V21.8023H69.1381V21.8677Z" fill="#211F1F"/>
<path d="M81.7269 21.8677V6.2486H85.2637V21.8677H81.7269Z" fill="#211F1F"/>
<path d="M97.6723 20.2342C97.1328 20.8877 96.4734 21.3452 95.814 21.6066C95.1546 21.868 94.3753 21.9987 93.5361 21.9987C91.9775 21.9987 90.7187 21.5413 89.8794 20.561C88.9803 19.5807 88.5007 18.6658 88.3808 17.8162C88.2609 16.9013 88.141 15.6596 88.141 14.0911C88.141 12.4573 88.201 11.1503 88.3808 10.3007C88.5007 9.45116 88.9203 8.66694 89.5198 8.01342C90.1192 7.3599 90.7187 6.90244 91.3781 6.57568C92.0375 6.24892 92.7568 6.11822 93.596 6.11822C95.2745 6.11822 96.5933 6.64103 97.5524 7.62131C98.4516 8.60159 99.051 9.84327 99.2309 11.281H95.6941C95.5742 10.6928 95.3344 10.2354 95.0347 9.97398C94.735 9.71257 94.2554 9.58187 93.656 9.58187C93.3563 9.58187 93.0565 9.64722 92.8168 9.77792C92.577 9.90862 92.3971 10.1047 92.2173 10.3007C92.0375 10.5621 91.9176 10.8889 91.8576 11.4117C91.7977 11.8692 91.7377 12.7841 91.7377 14.0911C91.7377 15.3982 91.7977 16.3131 91.8576 16.8359C91.9176 17.3587 92.0974 17.7509 92.3372 18.0776C92.577 18.4044 92.9966 18.6004 93.656 18.6004C94.3753 18.6004 94.8549 18.4697 95.0947 18.143C95.3344 17.8162 95.5143 17.5548 95.6342 17.228C95.7541 16.9013 95.7541 16.6399 95.7541 16.3131V16.0517H93.656V12.8495H99.2908V15.0061C99.2908 16.3131 99.1709 17.3587 98.9911 18.143C98.6314 18.9272 98.2718 19.6461 97.6723 20.2342Z" fill="#211F1F"/>
<path d="M109.242 21.8677V15.6593H105.525V21.8677H101.989V6.2486H105.525V12.261H109.242V6.2486H112.779V21.8677H109.242Z" fill="#211F1F"/>
<path d="M122.25 9.6469V21.8677H118.713V9.6469H115.176V6.2486H125.727V9.6469H122.25Z" fill="#211F1F"/>
<path d="M140.908 9.53286V21.7537H137.371V9.53286H133.834V6.13456H144.384V9.53286H140.908Z" fill="#211F1F"/>
<path d="M146.063 21.7535V6.1344H149.599V21.7535H146.063Z" fill="#211F1F"/>
<path d="M162.008 20.1199C161.469 20.7734 160.809 21.2309 160.15 21.4923C159.49 21.7537 158.711 21.8844 157.872 21.8844C156.313 21.8844 155.055 21.427 154.215 20.4467C153.316 19.4664 152.837 18.5515 152.717 17.7019C152.597 16.787 152.477 15.5453 152.477 13.9768C152.477 12.343 152.537 11.036 152.717 10.1864C152.837 9.33685 153.256 8.55263 153.856 7.89911C154.455 7.24559 155.055 6.78813 155.714 6.46137C156.373 6.13461 157.093 6.00391 157.932 6.00391C159.61 6.00391 160.929 6.52672 161.888 7.507C162.787 8.48728 163.387 9.72896 163.567 11.1667H160.03C159.91 10.5785 159.67 10.1211 159.371 9.85967C159.071 9.59826 158.591 9.46756 157.992 9.46756C157.692 9.46756 157.392 9.53291 157.153 9.66361C156.913 9.79432 156.733 9.99037 156.553 10.1864C156.373 10.4478 156.253 10.7746 156.193 11.2974C156.134 11.7549 156.074 12.6698 156.074 13.9768C156.074 15.2839 156.134 16.1988 156.193 16.7216C156.253 17.2444 156.433 17.6365 156.673 17.9633C156.913 18.2901 157.332 18.4861 157.992 18.4861C158.711 18.4861 159.191 18.3554 159.431 18.0287C159.67 17.7019 159.85 17.4405 159.97 17.1137C160.03 16.8523 160.09 16.5256 160.09 16.1988V16.0027H157.992V12.8005H163.627V14.9571C163.627 16.2642 163.507 17.3098 163.327 18.094C163.147 18.8782 162.548 19.4664 162.008 20.1199Z" fill="#211F1F"/>
<path d="M166.264 21.7535V6.1344H175.975V9.5327H169.741V12.1468H175.076V15.5451H169.741V18.2899H175.975V21.6881H166.264V21.7535Z" fill="#211F1F"/>
<path d="M186.106 21.7535L183.588 15.9372H182.389V21.7535H178.853V6.1344H184.547C186.046 6.1344 187.245 6.65721 188.144 7.63749C188.983 8.61777 189.463 9.79411 189.463 11.1665C189.463 12.1468 189.223 12.9963 188.804 13.6499C188.324 14.3687 187.784 14.8916 187.125 15.2183L190.242 21.7535H186.106ZM184.428 9.5327H182.449V12.6696H184.428C184.907 12.6696 185.267 12.5389 185.566 12.2121C185.866 11.8854 185.986 11.5586 185.986 11.1011C185.986 10.6437 185.866 10.3169 185.566 9.99016C185.267 9.72875 184.847 9.5327 184.428 9.5327Z" fill="#211F1F"/>
</svg>
